Title: Les Petits Mouchoirs

Country: France, 2010

Language: French

Subtitle: English

Director: Guillaume Canet

Writer: Guillaume Canet (scenario and dialogue)

Stars: François Cluzet, Marion Cotillard and Benoît Magimel

Plot: A near-fatal accident leaves one friend in the hospital while the rest go on their annual vacation. But their secrets and personal grief threaten to drive them apart.

Imdb: 
http://www.imdb.com/title/tt1440232/

Rip Specs:

General
Complete name                    : Les.Petits.Mouchoirs.2011.BRRip.AC3.HORiZON-ArtSubs.avi
Format                           : AVI
Format/Info                      : Audio Video Interleave
File size                        : 1.85 GiB
Duration                         : 2h 34mn
Overall bit rate                 : 1 718 Kbps
Writing application              : FairUse Wizard - http://fairusewizard.com
Writing library                  : The best and REALLY easy backup tool

Video
ID                               : 0
Format                           : MPEG-4 Visual
Format profile                   : Advanced Simple@L5
Format settings, BVOP            : 1
Format settings, QPel            : No
Format settings, GMC             : No warppoints
Format settings, Matrix          : Default (MPEG)
Muxing mode                      : Packed bitstream
Codec ID                         : XVID
Codec ID/Hint                    : XviD
Duration                         : 2h 34mn
Bit rate                         : 1 261 Kbps
Width                            : 688 pixels
Height                           : 288 pixels
Display aspect ratio             : 2.40:1
Frame rate                       : 23.976 fps
Color space                      : YUV
Chroma subsampling               : 4:2:0
Bit depth                        : 8 bits
Scan type                        : Progressive
Compression mode                 : Lossy
Bits/(Pixel*Frame)               : 0.265
Stream size                      : 1.36 GiB (73%)
Writing library                  : XviD 1.2.0.dev47 (UTC 2006-11-01)

Audio
ID                               : 1
Format                           : AC-3
Format/Info                      : Audio Coding 3
Mode extension                   : CM (complete main)
Codec ID                         : 2000
Duration                         : 2h 34mn
Bit rate mode                    : Constant
Bit rate                         : 448 Kbps
Channel(s)                       : 6 channels
Channel positions                : Front: L C R, Side: L R, LFE
Sampling rate                    : 48.0 KHz
Bit depth                        : 16 bits
Compression mode                 : Lossy
Stream size                      : 494 MiB (26%)
Alignment                        : Split accross interleaves
Interleave, duration             : 42 ms (1.00 video frame)
Interleave, preload duration     : 500 ms


